<svg height="512" viewBox="0 0 64 64" width="512" xmlns="http://www.w3.org/2000/svg"><g id="project-present-pencil-graph-business"><path d="m3 3h58v4h-58z" fill="#57a4ff"/><path d="m61 57-7 2.55v-5.1z" fill="#c6c5ca"/><path d="m57 7v38a4 4 0 0 1 -4 4h-42a4 4 0 0 1 -4-4v-38z" fill="#46f8ff"/><path d="m57 7v38a4 4 0 0 1 -4 4h-4a4 4 0 0 0 4-4v-38z" fill="#00d7df"/><path d="m54 54.45v5.1l-4 1.45v-4-4z" fill="#898890"/><path d="m9 57h41v4h-41z" fill="#ff7956"/><path d="m9 53h41v4h-41z" fill="#57a4ff"/><path d="m39.56 22.46a9.983 9.983 0 0 1 -.01 13.09l-7.55-7.55h-9.95a10 10 0 0 1 17.51-5.54z" fill="#ffde55"/><path d="m32 28 7.55 7.55a10 10 0 0 1 -17.55-6.55c0-.34.02-.67.05-1z" fill="#ff7956"/><path d="m9 53v8h-2a4 4 0 0 1 0-8z" fill="#c6c5ca"/><path d="m58 3h3v4h-3z" fill="#006df0"/><path d="m61 2h-58a1 1 0 0 0 -1 1v4a1 1 0 0 0 1 1h3v37a5.017 5.017 0 0 0 4 4.9v.1h43a5 5 0 0 0 5-5v-37h3a1 1 0 0 0 1-1v-4a1 1 0 0 0 -1-1zm-5 43a3.009 3.009 0 0 1 -3 3h-42a3.009 3.009 0 0 1 -3-3v-37h48zm4-39h-56v-2h56z"/><path d="m32 40a10.954 10.954 0 0 0 7.558-3.028l1.735 1.735a1 1 0 0 0 .707.293h12v-2h-11.586l-1.534-1.534a10.924 10.924 0 0 0 .075-12.831l3.388-2.635h9.657v-2h-10a1 1 0 0 0 -.614.21l-3.734 2.9a10.979 10.979 0 0 0 -18.461 5.89h-11.191v2h11a11.013 11.013 0 0 0 11 11zm0-2a9.011 9.011 0 0 1 -9-9h8.586l6.558 6.558a8.955 8.955 0 0 1 -6.144 2.442zm0-18a8.955 8.955 0 0 1 6.053 2.359l-3.667 2.851 1.228 1.58 3.764-2.928a8.964 8.964 0 0 1 .075 10.177l-6.746-6.746a1 1 0 0 0 -.707-.293h-8.768a9.01 9.01 0 0 1 8.768-7z"/><path d="m10 23h8v2h-8z"/><path d="m10 31h8v2h-8z"/><path d="m10 19h8v2h-8z"/><path d="m10 15h12v2h-12z"/><path d="m10 11h12v2h-12z"/><path d="m46 33h8v2h-8z"/><path d="m46 41h8v2h-8z"/><path d="m44 14h10v2h-10z"/><path d="m44 10h10v2h-10z"/><path d="m10 44h2v2h-2z"/><path d="m14 44h2v2h-2z"/><path d="m10 40h2v2h-2z"/><path d="m61.34 56.06-11-4a.974.974 0 0 0 -.34-.06h-43a5 5 0 0 0 0 10h43a.974.974 0 0 0 .34-.06l11-4a1 1 0 0 0 0-1.88zm-53.34 3.94h-1a3 3 0 0 1 0-6h1zm41 0h-39v-2h39zm0-4h-39v-2h39zm4 2.84-2 .73v-5.14l2 .73zm2-.72v-2.24l3.07 1.12z"/></g></svg>